<?xml version="1.0" standalone="no"?><!DOCTYPE svg PUBLIC "-//W3C//DTD SVG 1.1//EN" "http://www.w3.org/Graphics/SVG/1.1/DTD/svg11.dtd"><svg t="1674982618149" class="icon" viewBox="0 0 1024 1024" version="1.1" xmlns="http://www.w3.org/2000/svg" p-id="2999" xmlns:xlink="http://www.w3.org/1999/xlink" width="200" height="200"><path d="M895.552 291.541333a99.498667 99.498667 0 0 0-78.122667-38.101333H374.485333c-18.005333 0-32.810667 15.04-32.810666 33.365333 0 18.304 14.805333 33.344 32.810666 33.344h443.050667c10.133333 0 19.861333 4.736 26.389333 13.162667 6.506667 8.426667 8.789333 19.264 5.994667 31.466667l-28.970667 273.578666a33.28 33.28 0 0 1-32.789333 26.837334H344.170667c-15.722667 0-29.589333-11.264-32.810667-25.898667L257.493333 187.093333C247.744 140.565333 206.656 106.666667 159.893333 106.666667H96.789333C78.805333 106.666667 64 122.133333 64 140.565333c0 18.410667 14.805333 33.344 32.789333 33.344h63.104c15.722667 0 29.589333 11.264 32.810667 25.898667l53.888 452.224c9.728 46.506667 50.794667 80.426667 97.578667 80.426667H788.053333c46.656 0 86.912-32.426667 97.984-81.365334l28.970667-273.578666a104.256 104.256 0 0 0-19.456-85.973334zM746.666667 858.154667a56.896 56.896 0 1 0 113.770666 0 56.896 56.896 0 0 0-113.770666 0zM291.562667 858.154667a56.896 56.896 0 1 0 113.770666 0 56.896 56.896 0 0 0-113.770666 0z" fill="#FFFFFF" p-id="3000"></path></svg>